<svg width="84" height="40" viewBox="0 0 84 40" fill="none" xmlns="http://www.w3.org/2000/svg">
<g clip-path="url(#clip0_138_4343)">
<path d="M44.6796 29.7086C46.7379 27.3737 48.6642 25.1895 50.3687 23.255C51.4535 24.1906 52.5285 25.086 53.5666 26.0216C55.8396 28.0702 58.2445 29.9235 61.2628 30.7485C66.9124 32.2923 73.8022 29.8477 74.8529 21.8477C75.2849 18.5594 74.8107 15.437 72.8162 12.6829C71.1386 10.3676 68.7435 9.30187 65.9542 8.90767C61.9858 8.34579 58.9163 10.1393 56.0686 12.5242C52.8922 15.1846 50.3561 18.4265 47.7769 21.6274C44.0473 26.2562 40.1112 30.6878 35.2815 34.2446C31.8205 36.7935 28.0828 38.8002 23.8063 39.5993C12.8601 41.6435 2.51731 35.5342 0.445526 24.2254C-0.703072 17.9547 0.284777 12.0711 4.3125 6.9429C7.33711 3.09362 11.4394 1.01023 16.2646 0.263744C23.3187 -0.827895 29.3293 1.55338 34.6987 5.84947C36.845 7.5672 38.7983 9.52305 40.8898 11.4165C38.8962 13.8156 37.0246 16.0684 35.1235 18.3569C34.0503 17.3001 33.0508 16.2611 31.9929 15.2827C29.4425 12.9237 26.7133 10.8145 23.4166 9.54981C20.6919 8.50455 17.9412 8.55271 15.2453 9.57389C11.3981 11.0303 9.63072 14.0751 9.03711 17.9387C8.721 19.9953 8.88714 22.0261 9.50769 24.0069C10.9823 28.7123 14.8708 31.3371 20.0705 31.1748C23.3861 31.0713 26.2248 29.6898 28.8947 27.8963C32.5389 25.4472 35.5869 22.3507 38.4112 19.0357C40.8494 16.1746 43.1682 13.2118 45.6441 10.3837C48.3786 7.2604 51.458 4.52328 55.1121 2.44435C62.5623 -1.79467 72.36 -0.256211 78.067 5.24568C80.8734 7.9507 82.6228 11.2631 83.3763 15.0437C84.4081 20.2272 84.0049 25.2876 81.4455 30.0145C78.5286 35.4031 73.9468 38.604 67.8958 39.6528C60.7213 40.897 54.5131 38.7511 49.1294 34.0591C47.5847 32.7132 46.191 31.1962 44.6787 29.7095L44.6796 29.7086Z" fill="#00897B"/>
</g>
<defs>
<clipPath id="clip0_138_4343">
<rect width="83.9024" height="40" fill="#00897B"/>
</clipPath>
</defs>
</svg>
